<?xml version="1.0" encoding="UTF-8" standalone="no"?>
<svg
   xmlns:dc="http://purl.org/dc/elements/1.1/"
   xmlns:cc="http://creativecommons.org/ns#"
   xmlns:rdf="http://www.w3.org/1999/02/22-rdf-syntax-ns#"
   xmlns:svg="http://www.w3.org/2000/svg"
   xmlns="http://www.w3.org/2000/svg"
   xmlns:sodipodi="http://sodipodi.sourceforge.net/DTD/sodipodi-0.dtd"
   xmlns:inkscape="http://www.inkscape.org/namespaces/inkscape"
   width="511.99988"
   height="151.24875"
   viewBox="0 0 511.99987 151.24876"
   version="1.1"
   id="svg2902"
   inkscape:version="1.0.2 (1.0.2+r75+1)"
   sodipodi:docname="cartola_fc.svg">
  <defs
     id="defs2896" />
  <sodipodi:namedview
     id="base"
     pagecolor="#ffffff"
     bordercolor="#666666"
     borderopacity="1.0"
     inkscape:pageopacity="0.0"
     inkscape:pageshadow="2"
     inkscape:zoom="0.98994949"
     inkscape:cx="186.84884"
     inkscape:cy="55.011129"
     inkscape:document-units="px"
     inkscape:current-layer="layer1"
     inkscape:document-rotation="0"
     showgrid="false"
     units="px"
     fit-margin-top="0"
     fit-margin-left="0"
     fit-margin-right="0"
     fit-margin-bottom="0"
     inkscape:window-width="1366"
     inkscape:window-height="709"
     inkscape:window-x="0"
     inkscape:window-y="27"
     inkscape:window-maximized="1" />
  <metadata
     id="metadata2899">
    <rdf:RDF>
      <cc:Work
         rdf:about="">
        <dc:format>image/svg+xml</dc:format>
        <dc:type
           rdf:resource="http://purl.org/dc/dcmitype/StillImage" />
        <dc:title></dc:title>
      </cc:Work>
    </rdf:RDF>
  </metadata>
  <g
     inkscape:label="Layer 1"
     inkscape:groupmode="layer"
     id="layer1"
     transform="translate(-167.49569,-553.5318)">
    <path
       id="path18490"
       style="fill:#e3672b;fill-opacity:1;stroke-width:13.9081"
       d="m 492.93348,619.48697 c -1.37751,-0.17618 -2.98396,-0.14076 -4.8625,0.028 l -37.07937,3.8846 -3.91163,9.8335 c 2.64234,-1.25074 5.49701,-2.04688 8.55676,-2.36399 l 20.26461,-2.14551 c 2.01519,-0.21159 3.01575,0.24702 3.01575,1.3035 a 8.6230297,8.6230297 0 0 1 -0.28151,1.3846 3.087601,3.087601 0 0 1 -1.0851,1.74031 6.2169266,6.2169266 0 0 1 -2.90651,0.81375 l -18.5531,1.93065 c -4.47847,0.48658 -7.79996,1.79679 -9.94201,3.88413 -2.11381,2.09974 -3.73648,5.40687 -4.83538,9.96951 l -0.76063,3.01575 c -0.52852,2.14205 -0.78952,3.99729 -0.78952,5.56888 0,2.36399 0.72614,4.01341 2.2019,4.94387 1.45861,0.94072 3.9134,1.26482 7.30723,0.89486 l 14.50576,-1.52191 c 2.86418,-0.31692 4.90193,-0.81375 6.11213,-1.52199 a 10.208555,10.208555 0 0 0 3.449,-3.99338 l -0.0746,4.5095 18.36323,-1.95525 c 0.48658,-2.50494 1.48667,-6.0604 1.90241,-7.76901 l 4.40062,-18.17298 c 0.69445,-2.78318 1.0605,-5.09218 1.0605,-6.92701 0,-3.04744 -0.89858,-5.10597 -2.63525,-6.22025 -0.8846,-0.55649 -2.01873,-0.93717 -3.39625,-1.11335 z m -16.84188,22.24726 -1.3846,5.9491 c -0.64131,2.71271 -1.27536,4.38506 -1.90241,5.05276 -0.64131,0.67952 -1.93773,1.12024 -3.88413,1.33165 l -4.754,0.51827 a 7.3434837,7.3434837 0 0 1 -2.93474,-0.0746 c -0.51454,-0.2116 -0.78953,-0.68699 -0.78953,-1.4409 a 6.8845158,6.8845158 0 0 1 0.28151,-1.603 l 1.11325,-4.75363 c 0.39057,-1.47269 0.97586,-2.46262 1.68401,-2.98751 a 7.6216454,7.6216454 0 0 1 3.5054,-1.0041 z" />
    <path
       id="path18484"
       style="fill:#e3672b;fill-opacity:1;stroke-width:13.9081"
       d="m 407.77336,628.3696 c -1.21542,-0.14076 -2.64933,-0.14076 -4.34638,0.028 l -31.7549,3.33986 c -4.50634,0.47166 -7.8145,1.77209 -9.9421,3.85737 -2.12789,2.09974 -3.73686,5.42226 -4.83538,9.96951 l -4.04763,16.46139 c -0.51454,2.13143 -0.78579,3.98564 -0.78579,5.54138 0,2.34992 0.72613,3.98639 2.2019,4.91675 1.45851,0.93028 3.89969,1.26482 7.30713,0.89486 l 31.75499,-3.33976 c 4.49226,-0.4726 7.787,-1.77219 9.91488,-3.85748 2.12798,-2.09973 3.73658,-5.4064 4.83538,-9.96913 l 4.07438,-16.46176 c 0.51081,-2.12444 0.76063,-3.96868 0.76063,-5.51426 0,-2.34992 -0.74012,-3.99757 -2.2019,-4.94387 -0.72893,-0.46514 -1.71924,-0.77554 -2.93466,-0.92282 z m -18.09152,9.42588 c 1.72632,-0.17617 2.6071,0.31693 2.6071,1.4656 a 6.4533645,6.4533645 0 0 1 -0.2815,1.57485 l -4.56338,18.60764 c -0.45768,2.24068 -1.75802,3.45609 -3.88451,3.66713 l -8.44825,0.89858 c -1.61363,0.17618 -2.41685,-0.31693 -2.41685,-1.4656 a 6.5785376,6.5785376 0 0 1 0.24701,-1.603 l 4.56338,-18.58014 c 0.45768,-2.24068 1.70517,-3.45609 3.72176,-3.66713 z" />
    <path
       id="path8547"
       style="fill:#e3672b;fill-opacity:1;stroke-width:13.9081"
       d="m 259.10333,644.07045 c -1.37397,-0.17617 -2.99105,-0.14075 -4.8625,0.028 l -37.1065,3.8845 -3.91163,9.83351 c 2.65641,-1.25065 5.49701,-2.04688 8.55676,-2.36391 l 20.29173,-2.14559 c 2.0152,-0.2116 3.01575,0.24701 3.01575,1.30359 a 8.2336029,8.2336029 0 0 1 -0.2815,1.38451 3.0597849,3.0597849 0 0 1 -1.08511,1.71225 6.2864673,6.2864673 0 0 1 -2.93465,0.84172 l -18.55311,1.9271 c -4.49226,0.47166 -7.78699,1.77209 -9.91488,3.85701 -2.12789,2.09973 -3.75028,5.43399 -4.83538,9.99663 l -0.78579,3.01575 c -0.51454,2.12788 -0.76063,3.98527 -0.76063,5.54138 0,2.364 0.74012,4.04063 2.2019,4.971 1.47259,0.94072 3.88627,1.23658 7.28001,0.87062 l 14.50576,-1.522 c 2.86427,-0.2815 4.92915,-0.79977 6.13925,-1.49375 a 10.236371,10.236371 0 0 0 3.4491,-3.99338 l -0.0746,4.48201 20.34589,-2.14551 c -0.45768,-0.97585 -0.67953,-2.03635 -0.67953,-3.17784 a 19.652164,19.652164 0 0 1 0.59937,-4.40063 l 4.40063,-18.14577 c 0.69444,-2.78318 1.03225,-5.09218 1.03225,-6.92663 0,-3.0439 -0.89858,-5.13348 -2.63525,-6.24813 -0.8846,-0.55648 -1.99403,-0.90883 -3.36801,-1.0851 z m -16.84189,22.24765 -1.41275,5.92188 c -0.64131,2.72333 -1.2472,4.39643 -1.87425,5.0795 -0.64131,0.65902 -1.9518,1.12034 -3.91163,1.33175 l -4.7265,0.51827 a 7.2600351,7.2600351 0 0 1 -2.93475,-0.10533 c -0.51454,-0.2116 -0.78579,-0.68699 -0.78579,-1.4409 a 6.495089,6.495089 0 0 1 0.28151,-1.57485 l 1.11334,-4.78113 c 0.3915,-1.47259 0.96178,-2.43438 1.684,-2.95936 a 7.6077378,7.6077378 0 0 1 3.50541,-1.03225 z" />
    <path
       id="path18350"
       style="fill:#e3672b;fill-opacity:1;stroke-width:13.9081"
       d="m 656.70686,553.53207 a 22.899709,22.899709 0 1 0 0,45.79888 22.899709,22.899709 0 0 0 0,-45.79888 z m 0,11.46326 c 5.14606,0 10.64028,0.0746 15.61939,0.6236 1.43391,0.14075 2.19482,0.51734 2.364,2.03626 0.24702,2.8502 0.31693,5.79753 0.31693,8.77385 0,2.97697 -0.009,5.9229 -0.31693,8.77413 -0.14075,1.54661 -0.92655,1.89541 -2.364,2.03626 -4.97809,0.53225 -10.45953,0.64131 -15.61939,0.6236 -5.14652,0.028 -10.65444,-0.10533 -15.61948,-0.6236 -1.43381,-0.14075 -2.20889,-0.52852 -2.3639,-2.0645 a 88.455598,88.455598 0 0 1 -0.31693,-8.74701 c 0,-2.97697 0.0373,-5.9229 0.31693,-8.77376 0.14075,-1.5466 0.93027,-1.89541 2.3639,-2.03635 4.96541,-0.5425 10.47333,-0.63385 15.61948,-0.6236 z" />
    <path
       d="m 656.69596,567.18241 a 9.2698431,9.2698431 0 1 0 0,18.53968 9.2698431,9.2698431 0 0 0 0,-18.53968 m -426.86767,75.40977 a 16.133411,16.133411 0 0 0 -3.58827,-0.73639 23.699424,23.699424 0 0 0 -4.53383,0.14075 l -15.09021,1.58892 a 6.7176186,6.7176186 0 0 0 -3.36456,1.08156 c -0.75037,0.55649 -1.30704,1.55724 -1.64168,2.97698 l -12.89297,43.25451 a 4.7287585,4.7287585 0 0 0 -0.24702,1.40222 c 0,1.43391 1.1415,2.02926 3.4491,1.80732 l 298.96878,-31.15358 -4.99245,20.11128 -307.43893,21.58498 c -3.68615,0.36633 -6.4257,-0.0373 -8.23368,-1.2788 -1.80732,-1.25075 -2.72688,-3.57457 -2.72688,-6.96793 0,-1.83547 0.35235,-4.14764 1.04288,-6.92626 l 11.16833,-35.99389 c 1.43391,-5.967 3.61604,-10.34796 6.55079,-13.15761 2.93465,-2.80779 6.75931,-4.46262 11.47417,-4.96746 l 33.14304,-3.47371 z"
       id="path8545"
       style="fill:#e3672b;fill-opacity:1;stroke-width:13.9081" />
    <path
       style="fill:#e3672b;fill-opacity:1;stroke-width:13.9081"
       d="m 621.71697,601.75824 c -1.23657,-0.31693 -1.45851,-0.36633 -2.64224,-0.41946 a 30.458767,30.458767 0 0 0 -5.28532,0.24701 l -17.5518,1.86717 a 7.7329109,7.7329109 0 0 0 -3.92216,1.2789 c -0.86317,0.66927 -1.50084,1.84955 -1.90595,3.51593 l -11.75259,51.72402 a 5.5910615,5.5910615 0 0 0 -0.28151,1.66984 c 0,1.68409 1.3352,2.39215 4.00531,2.10328 l 13.83853,-1.4726 c 4.74273,-0.52479 8.51164,-1.25065 10.15305,-1.74039 2.05751,-0.59844 2.99105,-1.08156 5.18773,-2.3393 l -5.31273,14.72845 -39.36022,3.33985 c -4.28365,0.47167 -7.62136,-0.10533 -9.73554,-1.5713 -2.09974,-1.48676 -3.15669,-4.21607 -3.15669,-8.2059 0,-2.18074 3.53224,-20.52841 4.32494,-23.78297 l 6.62042,-27.5654 c 1.6841,-7.03765 4.21429,-12.19751 7.63552,-15.5218 3.39271,-3.3117 7.84405,-5.25707 13.32381,-5.84124 l 38.80393,-3.7954 z"
       id="path18496" />
    <path
       style="fill:#e3672b;fill-opacity:1;stroke-width:13.9081"
       d="m 519.38135,668.90683 a 33.727175,33.727175 0 0 0 -1.1978,7.74682 c 0,1.07103 0.17617,2.77964 0.50056,3.97931 l -28.48384,2.38152 c 0.77833,-3.71644 20.56997,-81.08426 20.50062,-81.43232 l 54.93692,-5.70245 -3.64392,12.01676 a 7.9554405,7.9554405 0 0 0 -2.78318,-0.5248 c -1.73685,-0.14075 -3.69956,0.10534 -6.11949,0.36634 l -19.94433,2.10327 -3.71326,15.43837 17.44078,-1.83547 c 2.61409,-0.24702 4.58948,-0.53226 5.98042,-0.76809 1.36335,-0.24701 3.18475,-0.62733 5.46597,-1.14149 l -3.25531,13.60251 c -0.94416,-0.36633 -1.36344,-0.59936 -3.82494,-0.88739 a 37.690986,37.690986 0 0 0 -7.06515,0.10533 l -17.45458,1.83547 z"
       id="path18494" />
    <path
       style="fill:#e3672b;fill-opacity:1;stroke-width:13.9081"
       d="m 422.56705,621.05081 c 0.58446,-2.41675 0.90511,-4.21597 0.90511,-5.53578 a 6.63417,6.63417 0 0 0 -0.21159,-1.66639 l -0.61335,-2.12788 22.61472,-2.364 -11.47417,47.10704 a 26.105529,26.105529 0 0 0 -0.86316,5.61884 c 0,0.64131 0.0746,1.15558 0.17618,1.57131 l 0.61334,2.13851 -24.85362,2.61409 a 28.094388,28.094388 0 0 0 2.71271,-4.08957 c 0.61335,-1.15557 1.2225,-3.05797 1.84964,-5.70236 z"
       id="path18488" />
    <path
       style="fill:#e3672b;fill-opacity:1;stroke-width:13.9081"
       d="m 321.16282,628.76734 20.5422,-2.67048 -2.2266,9.04053 16.21698,-1.7087 -1.99049,8.14988 -16.23068,1.7087 -5.3406,21.96054 a 7.3573917,7.3573917 0 0 0 -0.24702,1.66639 c 0,0.6236 0.24702,1.02871 0.73639,1.20842 a 7.2739431,7.2739431 0 0 0 2.79381,0.0373 l 5.84153,-0.75037 c 1.72632,-0.14075 3.18484,-0.5248 4.35346,-0.93028 1.18372,-0.41946 2.29707,-0.91909 3.33985,-1.43381 l -3.63012,9.87508 -24.22797,2.68456 c -2.92067,0.31693 -5.25745,-0.009 -6.982,-0.98648 -1.72278,-0.97232 -2.58594,-2.89243 -2.58594,-5.77181 0,-1.04633 0.028,-1.80732 0.0746,-2.3393 0.0746,-0.53225 0.24702,-1.41974 0.59937,-2.64578 l 4.92346,-20.4446 1.99049,-8.17803 z"
       id="path18482" />
    <path
       style="fill:#e3672b;fill-opacity:1;stroke-width:13.9081"
       d="m 292.81815,640.03261 -0.95824,6.92673 c 1.72632,-2.80788 3.42086,-4.78327 5.0905,-5.92505 1.66984,-1.12388 4.06133,-1.86018 7.16265,-2.18083 l 9.93045,-1.04279 -3.28355,13.25474 a 8.1501543,8.1501543 0 0 0 -3.06152,-0.92002 30.208422,30.208422 0 0 0 -5.82745,0.24702 c -3.90809,0.41946 -6.60607,1.15557 -8.06673,2.22306 -1.4726,1.07102 -2.54362,3.03336 -3.24114,5.85532 l -3.28356,13.39391 a 26.230701,26.230701 0 0 0 -0.86316,5.60476 5.8414076,5.8414076 0 0 0 0.17618,1.58893 l 0.59936,2.12788 -24.85409,2.61409 a 28.094388,28.094388 0 0 0 2.72688,-4.08948 c 0.59844,-1.14149 1.20843,-3.05806 1.84955,-5.70245 l 5.43782,-22.50305 c 0.57047,-2.41685 0.87715,-4.03178 0.89113,-5.42449 0.0186,-0.62733 -0.14075,-1.66638 -0.24702,-2.08557 -0.10533,-0.41946 -0.2815,-0.81002 -0.55649,-1.80732 z"
       id="path18480" />
  </g>
</svg>
